<svg width="324" height="79" xmlns="http://www.w3.org/2000/svg"><g fill="#FFF" fill-rule="evenodd"><path d="M12.594 1.383H40.26l10.451 38.853L61.356 1.383h27.38l12.161 73.976H74.904l-4.759-39.808-11.828 39.808h-15.7L31.34 35.551l-4.719 39.808h-26L12.594 1.383M144.545 24.539c8.539 0 13.832 6.563 13.832 14.414 0 8.441-5.684 14.225-13.832 14.225-8.143 0-13.829-5.784-13.829-14.225 0-7.851 5.298-14.414 13.829-14.414m0-24.339c-22.466 0-40.911 15.112-40.911 38.367 0 23.736 18.345 37.959 40.911 37.959 22.567 0 40.927-14.223 40.927-37.959C185.472 15.312 167.016.2 144.545.2M282.16 24.539c8.539 0 13.83 6.563 13.83 14.414 0 8.441-5.684 14.225-13.83 14.225-8.143 0-13.827-5.784-13.827-14.225 0-7.851 5.288-14.414 13.827-14.414m0-24.339c-22.471 0-40.912 15.112-40.912 38.367 0 23.736 18.346 37.959 40.912 37.959 22.571 0 40.926-14.223 40.926-37.959C323.086 15.312 304.645.2 282.16.2M200.586 54.994c-3.43 0-5.327-2.429-6.649-5.148-1.804 7.76-5.348 14.591-10.55 20.329 6.742 5.156 16.07 8.598 23.379 8.598 15.574 0 26.45-10.922 26.45-26.559V1.355H206.09v44.568c0 2.243 0 9.071-5.504 9.071"/></g></svg>